<svg xmlns="http://www.w3.org/2000/svg" viewBox="0 0 276 531">
  <path id="belize" fill="#7fb23c" stroke="#ffffff" stroke-width="2" fill-rule="evenodd" d="M 42.5,516.0 L 55.5,494.0 L 55.5,488.0 L 57.5,484.0 L 57.5,480.0 L 60.5,475.0 L 61.5,469.0 L 54.5,457.0 L 47.5,452.0 L 47.5,432.0 L 48.5,431.0 L 47.5,416.0 L 50.5,409.0 L 49.5,408.0 L 49.5,387.0 L 48.5,386.0 L 48.5,364.0 L 47.5,363.0 L 47.5,347.0 L 46.5,346.0 L 45.5,307.0 L 41.0,302.5 L 38.0,305.5 L 28.0,308.5 L 25.5,313.0 L 27.5,317.0 L 24.5,320.0 L 25.5,325.0 L 23.0,326.5 L 14.5,326.0 L 15.5,325.0 L 15.5,305.0 L 14.5,304.0 L 14.5,288.0 L 13.5,287.0 L 13.5,271.0 L 12.5,270.0 L 12.5,248.0 L 11.5,247.0 L 9.5,220.0 L 14.5,209.0 L 14.5,205.0 L 21.5,197.0 L 22.5,188.0 L 26.0,184.5 L 30.0,184.5 L 37.0,181.5 L 45.0,181.5 L 49.0,177.5 L 52.0,176.5 L 57.5,170.0 L 53.5,165.0 L 53.5,161.0 L 51.5,157.0 L 53.5,144.0 L 56.5,139.0 L 56.5,132.0 L 52.5,125.0 L 52.5,115.0 L 53.5,110.0 L 56.5,105.0 L 57.5,88.0 L 53.5,82.0 L 51.5,76.0 L 54.5,69.0 L 56.5,59.0 L 59.5,56.0 L 59.5,52.0 L 62.5,47.0 L 62.5,42.0 L 92.0,36.5 L 96.0,34.5 L 114.0,31.5 L 122.0,28.5 L 161.0,21.5 L 171.0,17.5 L 195.0,13.5 L 207.0,9.5 L 218.0,9.5 L 224.0,11.5 L 233.0,11.5 L 245.0,14.5 L 254.0,14.5 L 255.0,15.5 L 265.0,16.5 L 265.5,18.0 L 263.5,19.0 L 262.5,24.0 L 253.5,34.0 L 252.5,39.0 L 254.5,44.0 L 256.5,45.0 L 254.5,48.0 L 254.5,52.0 L 253.5,52.0 L 253.0,48.5 L 247.0,46.5 L 240.5,52.0 L 238.5,61.0 L 233.5,64.0 L 232.5,69.0 L 233.5,74.0 L 235.0,76.5 L 239.0,76.5 L 240.5,78.0 L 236.5,83.0 L 240.0,87.5 L 245.0,86.5 L 248.5,84.0 L 248.5,92.0 L 246.5,98.0 L 246.5,108.0 L 245.0,110.5 L 240.0,109.5 L 235.5,112.0 L 234.5,117.0 L 226.5,127.0 L 225.5,139.0 L 218.5,144.0 L 220.5,149.0 L 214.5,154.0 L 214.5,159.0 L 216.5,162.0 L 213.5,165.0 L 212.5,168.0 L 212.5,176.0 L 218.0,176.5 L 222.5,174.0 L 222.0,165.5 L 231.5,165.0 L 225.5,172.0 L 224.5,177.0 L 220.0,181.5 L 214.0,177.5 L 212.0,177.5 L 208.5,181.0 L 205.5,189.0 L 205.5,195.0 L 203.5,199.0 L 203.5,209.0 L 202.5,210.0 L 202.5,241.0 L 203.5,246.0 L 212.0,256.5 L 227.0,258.5 L 231.0,260.5 L 232.5,265.0 L 237.0,269.5 L 241.0,270.5 L 246.0,269.5 L 247.5,273.0 L 252.0,275.5 L 256.0,272.5 L 258.5,275.0 L 262.5,287.0 L 256.0,291.5 L 252.0,291.5 L 249.5,290.0 L 249.5,287.0 L 245.0,283.5 L 239.0,284.5 L 227.5,293.0 L 222.5,306.0 L 220.5,316.0 L 220.5,328.0 L 215.5,341.0 L 214.5,350.0 L 210.5,360.0 L 209.5,369.0 L 205.5,379.0 L 204.5,388.0 L 200.5,398.0 L 199.5,407.0 L 195.5,417.0 L 194.5,450.0 L 193.5,451.0 L 193.5,461.0 L 192.5,462.0 L 192.5,505.0 L 193.5,509.0 L 172.0,520.5 L 49.0,519.5 Z M 184.0,400.5 L 188.0,400.5 L 195.5,393.0 L 194.5,387.0 L 197.5,383.0 L 196.5,374.0 L 198.5,369.0 L 198.5,366.0 L 196.0,363.5 L 194.0,364.5 L 191.0,363.5 L 187.0,366.5 L 183.0,367.5 L 177.5,379.0 L 177.5,383.0 L 175.5,387.0 L 175.5,393.0 L 178.0,395.5 L 181.0,394.5 L 181.5,398.0 Z M 185.0,481.5 L 187.5,479.0 L 187.5,474.0 L 186.5,473.0 L 189.5,470.0 L 189.5,465.0 L 185.5,460.0 L 181.5,449.0 L 179.0,446.5 L 174.0,445.5 L 171.0,443.5 L 167.5,446.0 L 167.5,448.0 L 173.5,459.0 L 175.5,469.0 L 179.5,478.0 L 183.0,481.5 Z"/>
</svg>
