<svg xmlns="http://www.w3.org/2000/svg" viewBox="0 0 336 504">
<path d="M 224 49 L 213 58 L 214 63 L 217 66 L 214 71 L 212 71 L 208 66 L 202 72 L 182 82 L 181 84 L 181 110 L 186 115 L 186 118 L 184 121 L 178 123 L 178 128 L 187 129 L 189 133 L 182 140 L 171 137 L 167 145 L 154 161 L 152 167 L 154 213 L 152 232 L 157 234 L 155 238 L 157 242 L 153 242 L 153 250 L 160 251 L 162 255 L 155 261 L 145 259 L 143 264 L 138 269 L 141 277 L 139 281 L 134 284 L 136 297 L 144 296 L 150 291 L 158 290 L 160 287 L 164 286 L 165 289 L 162 292 L 176 300 L 182 317 L 192 330 L 196 330 L 198 325 L 196 313 L 192 304 L 194 291 L 190 287 L 188 279 L 182 271 L 183 268 L 190 265 L 188 253 L 189 241 L 183 223 L 188 219 L 189 208 L 187 203 L 187 194 L 193 180 L 195 158 L 199 154 L 200 146 L 203 143 L 203 137 L 208 131 L 208 122 L 213 117 L 211 110 L 219 107 L 219 98 L 226 86 L 226 82 L 224 80 Z" fill="#FF7F6E" stroke="#E46857" stroke-width="2" stroke-linejoin="round"/>
<path d="M 196 334 L 191 335 L 190 341 L 187 345 L 188 349 L 190 350 L 189 358 L 187 360 L 195 360 L 198 363 L 198 372 L 193 375 L 192 378 L 183 378 L 182 373 L 180 373 L 174 381 L 175 385 L 173 390 L 175 394 L 170 401 L 161 401 L 150 407 L 144 407 L 140 403 L 133 402 L 133 411 L 129 411 L 126 405 L 124 405 L 124 410 L 120 411 L 118 399 L 113 396 L 113 394 L 116 393 L 116 390 L 104 394 L 97 400 L 92 409 L 91 420 L 96 424 L 97 420 L 103 416 L 104 420 L 101 424 L 109 423 L 111 427 L 101 429 L 100 432 L 97 432 L 94 436 L 85 440 L 85 447 L 91 453 L 90 457 L 84 460 L 82 465 L 86 468 L 86 473 L 94 475 L 96 478 L 120 477 L 139 469 L 145 463 L 156 459 L 161 454 L 167 439 L 159 441 L 156 439 L 154 433 L 159 432 L 166 434 L 171 428 L 176 428 L 197 396 L 193 395 L 191 392 L 192 387 L 198 387 L 202 377 L 201 350 L 199 339 L 197 338 Z" fill="#FF7F6E" stroke="#E46857" stroke-width="2" stroke-linejoin="round"/>
<path d="M 223 28 L 219 32 L 218 38 L 223 41 L 224 38 L 230 34 L 231 37 L 229 41 L 233 40 L 236 44 L 228 47 L 234 49 L 237 52 L 238 57 L 240 54 L 240 48 L 244 44 L 244 36 L 242 32 L 236 27 L 232 26 Z" fill="#FF7F6E" stroke="#E46857" stroke-width="2" stroke-linejoin="round"/>
</svg>