<svg xmlns="http://www.w3.org/2000/svg" viewBox="0 0 1024 1536">
  <path d="M 62.0,1223.5 L 61.5,1218.0 L 62.5,1213.0 L 62.5,1207.0 L 63.5,1202.0 L 63.5,1196.0 L 64.0,1190.5 L 64.5,1185.0 L 65.0,1179.5 L 65.5,1174.0 L 65.5,1168.0 L 66.5,1163.0 L 66.5,1157.0 L 67.5,1152.0 L 67.5,1146.0 L 68.5,1141.0 L 68.5,1135.0 L 69.5,1130.0 L 69.5,1124.0 L 70.5,1119.0 L 70.5,1113.0 L 71.5,1108.0 L 71.5,1102.0 L 72.5,1097.0 L 72.5,1091.0 L 73.5,1086.0 L 73.5,1080.0 L 74.5,1075.0 L 74.5,1069.0 L 75.5,1064.0 L 75.5,1058.0 L 76.5,1053.0 L 76.5,1047.0 L 77.5,1042.0 L 77.5,1036.0 L 78.5,1031.0 L 78.5,1025.0 L 79.5,1020.0 L 79.5,1014.0 L 80.5,1009.0 L 80.5,1003.0 L 81.5,998.0 L 81.5,992.0 L 82.5,987.0 L 82.5,981.0 L 83.5,976.0 L 83.5,970.0 L 84.5,965.0 L 84.5,959.0 L 85.5,954.0 L 85.5,948.0 L 86.5,943.0 L 86.5,937.0 L 87.5,932.0 L 88.0,926.5 L 88.5,921.0 L 88.5,915.0 L 88.5,909.0 L 88.5,903.0 L 88.5,897.0 L 88.5,891.0 L 88.5,885.0 L 88.5,879.0 L 88.5,873.0 L 88.5,867.0 L 88.5,861.0 L 88.5,855.0 L 88.5,849.0 L 88.5,843.0 L 88.5,837.0 L 88.5,831.0 L 88.5,825.0 L 88.5,819.0 L 88.5,813.0 L 88.5,807.0 L 88.5,801.0 L 88.5,795.0 L 88.5,789.0 L 88.5,783.0 L 88.5,777.0 L 88.5,771.0 L 88.5,765.0 L 88.5,759.0 L 88.5,753.0 L 88.5,747.0 L 88.5,741.0 L 88.5,735.0 L 88.5,729.0 L 88.5,723.0 L 88.5,717.0 L 91.0,713.5 L 93.5,710.0 L 96.5,707.0 L 100.0,704.5 L 103.5,702.0 L 107.5,700.0 L 112.0,698.5 L 114.5,695.0 L 118.0,692.5 L 121.0,689.5 L 125.0,687.5 L 129.0,685.5 L 134.0,686.5 L 139.0,687.5 L 142.5,690.0 L 144.5,694.0 L 149.0,693.5 L 153.0,691.5 L 156.5,690.0 L 160.5,689.0 L 166.0,688.5 L 172.0,688.5 L 177.0,687.5 L 182.0,686.5 L 187.0,685.5 L 193.0,685.5 L 198.0,686.5 L 203.0,685.5 L 208.0,684.5 L 212.5,683.0 L 217.0,681.5 L 221.5,680.0 L 224.0,676.5 L 226.0,672.5 L 228.0,668.5 L 232.0,666.5 L 238.0,666.5 L 243.0,667.5 L 249.0,667.5 L 255.0,667.5 L 260.0,666.5 L 266.0,666.5 L 269.5,669.0 L 274.0,670.5 L 278.0,668.5 L 282.5,667.0 L 286.5,668.0 L 291.0,669.5 L 297.0,669.5 L 303.0,669.5 L 308.0,668.5 L 312.0,666.5 L 317.0,665.5 L 320.5,663.0 L 323.5,660.0 L 325.5,656.0 L 328.5,653.0 L 331.5,650.0 L 337.0,649.5 L 342.0,650.5 L 348.0,650.5 L 352.5,649.0 L 355.0,645.5 L 358.0,642.5 L 363.0,641.5 L 368.0,642.5 L 373.5,643.0 L 378.0,642.5 L 384.0,642.5 L 389.5,642.0 L 390.0,637.5 L 387.5,634.0 L 389.5,630.0 L 388.5,625.0 L 393.0,623.5 L 397.0,621.5 L 401.0,619.5 L 401.5,625.0 L 402.5,630.0 L 402.5,636.0 L 402.5,642.0 L 403.5,647.0 L 403.5,653.0 L 403.5,659.0 L 403.5,665.0 L 404.5,670.0 L 404.5,676.0 L 404.5,682.0 L 404.5,688.0 L 405.5,693.0 L 405.5,699.0 L 405.5,705.0 L 406.0,710.5 L 406.5,716.0 L 406.5,722.0 L 405.5,727.0 L 404.5,732.0 L 404.5,738.0 L 405.5,743.0 L 404.5,748.0 L 403.5,753.0 L 403.5,759.0 L 403.5,765.0 L 405.5,769.0 L 410.0,770.5 L 412.5,774.0 L 415.0,777.5 L 417.5,781.0 L 417.5,787.0 L 415.5,791.0 L 414.0,795.5 L 412.5,800.0 L 411.5,805.0 L 410.5,810.0 L 408.5,814.0 L 405.5,817.0 L 403.5,821.0 L 401.5,825.0 L 399.0,828.5 L 395.0,830.5 L 390.5,832.0 L 387.0,834.5 L 383.0,836.5 L 380.0,839.5 L 381.5,843.0 L 384.0,846.5 L 386.5,850.0 L 388.5,854.0 L 390.5,858.0 L 392.5,862.0 L 396.0,864.5 L 401.0,863.5 L 405.5,865.0 L 407.5,869.0 L 407.5,875.0 L 404.0,877.5 L 400.0,879.5 L 396.0,881.5 L 393.5,885.0 L 392.5,890.0 L 389.5,893.0 L 387.5,897.0 L 385.5,901.0 L 385.5,907.0 L 383.5,911.0 L 380.5,914.0 L 377.5,917.0 L 373.5,919.0 L 369.0,920.5 L 367.5,925.0 L 365.5,929.0 L 363.0,932.5 L 359.0,932.5 L 356.5,934.0 L 354.5,938.0 L 353.5,943.0 L 349.5,945.0 L 347.0,948.5 L 347.5,953.0 L 348.5,958.0 L 346.0,961.5 L 346.5,966.0 L 347.5,971.0 L 348.0,976.5 L 347.0,980.5 L 345.0,984.5 L 341.5,985.0 L 336.0,985.5 L 332.5,988.0 L 331.5,993.0 L 334.0,996.5 L 338.0,998.5 L 343.0,999.5 L 344.5,1004.0 L 340.0,1005.5 L 335.0,1006.5 L 330.0,1007.5 L 324.0,1007.5 L 319.5,1009.0 L 316.0,1011.5 L 311.5,1013.0 L 309.5,1017.0 L 307.0,1020.5 L 305.0,1024.5 L 303.0,1028.5 L 300.0,1031.5 L 296.5,1034.0 L 295.0,1038.5 L 294.0,1043.5 L 292.0,1047.5 L 289.0,1050.5 L 286.5,1054.0 L 284.5,1058.0 L 282.5,1062.0 L 281.5,1067.0 L 281.5,1073.0 L 280.5,1078.0 L 277.0,1080.5 L 272.5,1082.0 L 268.0,1083.5 L 265.0,1086.5 L 264.5,1092.0 L 261.0,1094.5 L 257.5,1097.0 L 256.5,1102.0 L 255.5,1107.0 L 257.5,1111.0 L 259.5,1115.0 L 260.5,1120.0 L 256.0,1121.5 L 252.0,1123.5 L 248.5,1126.0 L 246.5,1130.0 L 243.0,1132.5 L 239.5,1135.0 L 236.5,1138.0 L 232.0,1139.5 L 227.0,1140.5 L 222.0,1141.5 L 218.5,1144.0 L 215.0,1146.5 L 212.5,1150.0 L 209.5,1153.0 L 206.0,1155.5 L 202.0,1155.5 L 197.5,1155.0 L 193.0,1156.5 L 189.0,1158.5 L 186.0,1161.5 L 183.0,1164.5 L 180.5,1168.0 L 181.0,1173.5 L 178.0,1175.5 L 172.0,1175.5 L 168.5,1178.0 L 165.0,1180.5 L 160.0,1181.5 L 157.0,1184.5 L 152.0,1183.5 L 148.0,1181.5 L 146.0,1177.5 L 143.5,1174.0 L 140.5,1172.0 L 138.0,1175.5 L 136.0,1179.5 L 133.5,1183.0 L 130.0,1185.5 L 126.5,1188.0 L 123.0,1190.5 L 120.0,1193.5 L 117.5,1197.0 L 113.0,1196.5 L 107.0,1196.5 L 102.0,1197.5 L 97.0,1198.5 L 91.0,1198.5 L 87.0,1200.5 L 83.0,1202.5 L 77.5,1203.0 L 73.5,1205.0 L 70.0,1207.5 L 67.5,1211.0 L 65.5,1215.0 L 63.5,1219.0 L 62.0,1223.5 Z" fill="rgb(28,115,183)" stroke="white" stroke-width="2" fill-rule="evenodd"/>
</svg>
