<svg xmlns="http://www.w3.org/2000/svg" viewBox="0 0 1024 1536">
  <path d="M 631.0,328.5 L 626.0,327.5 L 620.5,327.0 L 615.0,326.5 L 610.0,325.5 L 605.0,324.5 L 599.5,324.0 L 594.0,323.5 L 589.0,322.5 L 584.0,321.5 L 578.5,321.0 L 573.0,320.5 L 568.5,319.0 L 565.5,316.0 L 562.5,313.0 L 559.5,310.0 L 556.5,307.0 L 553.0,304.5 L 550.0,301.5 L 547.0,298.5 L 544.0,295.5 L 540.5,293.0 L 537.5,290.0 L 534.5,287.0 L 531.5,284.0 L 528.5,281.0 L 525.0,278.5 L 522.0,275.5 L 519.0,272.5 L 516.0,269.5 L 512.5,267.0 L 509.5,264.0 L 506.5,261.0 L 503.5,258.0 L 500.5,255.0 L 497.0,252.5 L 494.0,249.5 L 491.0,246.5 L 488.0,243.5 L 485.0,240.5 L 483.5,236.0 L 481.5,232.0 L 479.5,228.0 L 477.5,224.0 L 475.5,220.0 L 473.5,216.0 L 472.0,211.5 L 470.0,207.5 L 468.0,203.5 L 466.0,199.5 L 464.0,195.5 L 462.0,191.5 L 460.0,187.5 L 456.0,185.5 L 452.0,183.5 L 447.5,182.0 L 443.5,180.0 L 439.0,178.5 L 435.0,176.5 L 431.0,174.5 L 427.0,172.5 L 422.5,171.0 L 418.5,169.0 L 414.0,167.5 L 410.0,165.5 L 406.0,163.5 L 402.0,161.5 L 398.0,159.5 L 395.5,156.0 L 395.0,150.5 L 395.0,145.5 L 397.5,142.0 L 397.5,138.0 L 399.5,134.0 L 397.5,130.0 L 400.0,126.5 L 403.5,124.0 L 406.5,121.0 L 409.5,118.0 L 412.5,115.0 L 415.5,112.0 L 418.5,109.0 L 420.5,105.0 L 423.0,101.5 L 425.5,98.0 L 428.0,94.5 L 429.5,90.0 L 427.5,86.0 L 425.5,82.0 L 428.0,78.5 L 430.5,75.0 L 432.5,71.0 L 435.0,67.5 L 436.5,63.0 L 438.5,59.0 L 439.5,54.0 L 440.5,49.0 L 441.5,44.0 L 443.5,40.0 L 445.5,36.0 L 448.0,32.5 L 452.0,30.5 L 455.5,28.0 L 457.5,24.0 L 460.0,20.5 L 463.5,22.0 L 466.5,19.0 L 471.0,19.5 L 476.0,20.5 L 481.5,21.0 L 482.5,26.0 L 487.0,25.5 L 491.0,23.5 L 496.0,22.5 L 499.5,20.0 L 503.0,17.5 L 509.0,17.5 L 514.0,18.5 L 517.0,21.5 L 520.5,24.0 L 517.0,26.5 L 512.5,28.0 L 510.5,32.0 L 507.5,35.0 L 506.5,40.0 L 510.0,40.5 L 513.0,37.5 L 516.0,34.5 L 519.0,31.5 L 522.5,29.0 L 524.0,24.5 L 528.5,23.0 L 534.0,22.5 L 538.5,22.0 L 543.5,22.0 L 547.5,20.0 L 552.0,20.5 L 555.5,23.0 L 559.0,25.5 L 562.5,28.0 L 564.5,32.0 L 566.5,36.0 L 566.0,39.5 L 562.5,42.0 L 559.0,44.5 L 556.5,48.0 L 554.0,51.5 L 552.0,55.5 L 548.5,58.0 L 545.0,60.5 L 541.0,62.5 L 536.5,64.0 L 533.0,66.5 L 529.0,68.5 L 526.0,71.5 L 522.0,73.5 L 518.0,71.5 L 514.5,74.0 L 514.0,79.5 L 511.5,83.0 L 511.5,89.0 L 511.5,95.0 L 514.0,98.5 L 517.5,101.0 L 522.0,102.5 L 527.0,101.5 L 531.0,99.5 L 535.0,97.5 L 539.0,95.5 L 544.0,94.5 L 548.0,92.5 L 553.0,91.5 L 553.0,94.5 L 549.5,97.0 L 546.0,99.5 L 543.0,102.5 L 540.5,106.0 L 539.5,111.0 L 542.0,114.5 L 547.5,114.0 L 551.5,112.0 L 556.0,110.5 L 560.0,108.5 L 563.5,106.0 L 567.0,103.5 L 572.0,102.5 L 578.0,102.5 L 583.0,101.5 L 587.0,99.5 L 593.0,99.5 L 598.0,98.5 L 602.5,100.0 L 599.5,103.0 L 600.0,106.5 L 605.0,107.5 L 609.0,105.5 L 612.0,102.5 L 616.5,104.0 L 613.5,107.0 L 611.0,110.5 L 607.5,113.0 L 608.0,116.5 L 612.5,117.0 L 616.0,114.5 L 619.0,111.5 L 622.5,109.0 L 626.0,106.5 L 629.5,109.0 L 634.0,108.5 L 638.0,106.5 L 641.0,103.5 L 645.5,102.0 L 649.5,100.0 L 653.5,98.0 L 657.0,95.5 L 661.0,93.5 L 667.0,93.5 L 672.0,92.5 L 677.0,91.5 L 678.0,93.5 L 675.5,97.0 L 674.5,100.0 L 674.0,105.5 L 672.0,107.5 L 668.0,105.5 L 663.0,106.5 L 661.5,111.0 L 659.0,114.5 L 656.5,118.0 L 654.0,121.5 L 650.0,123.5 L 647.0,124.5 L 642.0,123.5 L 638.5,126.0 L 638.5,132.0 L 635.5,135.0 L 636.5,140.0 L 633.0,142.5 L 629.0,142.5 L 626.0,145.5 L 623.5,149.0 L 624.5,152.0 L 622.0,155.5 L 619.0,158.5 L 615.5,161.0 L 614.5,166.0 L 615.5,171.0 L 611.5,173.0 L 610.5,178.0 L 607.5,181.0 L 604.5,184.0 L 603.5,189.0 L 606.0,192.5 L 611.0,193.5 L 615.0,193.5 L 617.0,189.5 L 617.5,184.0 L 619.0,179.5 L 621.5,176.0 L 624.0,174.5 L 626.5,171.0 L 629.0,169.5 L 631.5,166.0 L 630.5,161.0 L 633.0,157.5 L 638.0,156.5 L 640.5,160.0 L 644.5,159.0 L 646.5,155.0 L 646.5,151.0 L 650.5,149.0 L 652.5,145.0 L 655.0,141.5 L 659.0,139.5 L 662.0,136.5 L 664.5,133.0 L 665.0,128.5 L 661.0,128.5 L 658.0,131.5 L 654.5,134.0 L 652.0,137.5 L 649.5,140.0 L 647.0,136.5 L 644.0,139.5 L 641.5,136.0 L 641.5,132.0 L 645.0,133.5 L 649.5,132.0 L 652.5,129.0 L 656.5,127.0 L 660.0,126.5 L 663.0,123.5 L 666.0,124.5 L 669.5,123.0 L 670.0,126.5 L 668.0,129.5 L 666.5,134.0 L 667.5,139.0 L 664.5,142.0 L 663.5,145.0 L 661.0,148.5 L 658.0,151.5 L 654.5,152.0 L 658.0,152.5 L 661.0,151.5 L 667.0,151.5 L 667.5,155.0 L 668.0,160.5 L 672.0,160.5 L 675.5,158.0 L 676.0,153.5 L 673.0,150.5 L 670.5,151.0 L 667.5,148.0 L 665.5,144.0 L 668.5,141.0 L 670.5,137.0 L 672.5,133.0 L 671.5,128.0 L 675.0,125.5 L 675.5,129.0 L 675.5,133.0 L 676.0,136.5 L 679.0,139.5 L 681.0,140.5 L 678.0,143.5 L 676.0,144.5 L 679.0,147.5 L 679.5,153.0 L 677.5,157.0 L 679.0,161.5 L 679.5,165.0 L 679.5,169.0 L 678.0,173.5 L 675.0,176.5 L 672.5,180.0 L 672.5,184.0 L 670.0,187.5 L 666.5,190.0 L 666.0,194.5 L 668.0,198.5 L 670.5,202.0 L 667.0,204.5 L 664.5,208.0 L 666.0,212.5 L 670.0,210.5 L 669.0,214.5 L 667.5,219.0 L 668.5,224.0 L 670.5,228.0 L 670.0,231.5 L 667.5,235.0 L 664.0,237.5 L 659.0,236.5 L 655.0,238.5 L 653.5,243.0 L 655.5,247.0 L 659.0,247.5 L 661.0,251.5 L 664.5,254.0 L 664.5,258.0 L 663.0,262.5 L 661.5,267.0 L 660.5,272.0 L 659.0,276.5 L 659.5,281.0 L 657.0,284.5 L 654.0,287.5 L 648.0,287.5 L 643.0,288.5 L 640.5,292.0 L 642.0,295.5 L 639.0,298.5 L 639.5,303.0 L 637.0,306.5 L 634.0,309.5 L 631.0,312.5 L 632.0,316.5 L 630.5,320.0 L 630.5,324.0 L 632.0,327.5 L 631.0,328.5 Z" fill="rgb(248,182,56)" stroke="white" stroke-width="2" fill-rule="evenodd"/>
  <path d="M 498.5,193.0 L 499.0,192.5 L 499.5,192.0 L 500.0,191.5 L 500.5,191.0 L 501.0,190.5 L 501.5,190.0 L 502.0,189.5 L 502.5,189.0 L 503.0,188.5 L 503.5,188.0 L 504.0,187.5 L 504.5,187.0 L 504.5,186.0 L 504.5,185.0 L 505.0,184.5 L 505.5,184.0 L 505.5,183.0 L 505.5,182.0 L 506.0,181.5 L 506.5,181.0 L 506.5,180.0 L 507.0,179.5 L 507.5,179.0 L 507.5,178.0 L 508.0,177.5 L 508.5,177.0 L 509.0,176.5 L 509.5,176.0 L 509.5,175.0 L 510.0,174.5 L 510.5,174.0 L 511.0,173.5 L 511.5,173.0 L 511.5,172.0 L 512.0,171.5 L 512.5,171.0 L 513.0,170.5 L 513.5,170.0 L 514.0,169.5 L 514.5,169.0 L 514.5,168.0 L 514.5,167.0 L 514.5,166.0 L 515.0,165.5 L 515.5,165.0 L 515.5,164.0 L 516.0,163.5 L 517.0,163.5 L 517.5,163.0 L 518.0,162.5 L 519.0,162.5 L 519.5,162.0 L 520.0,161.5 L 520.5,161.0 L 521.0,160.5 L 521.5,160.0 L 522.0,159.5 L 522.5,159.0 L 522.5,158.0 L 522.5,157.0 L 523.0,156.5 L 523.5,156.0 L 523.5,155.0 L 523.5,154.0 L 523.0,153.5 L 522.5,153.0 L 522.0,152.5 L 521.5,152.0 L 521.0,151.5 L 520.0,151.5 L 519.0,151.5 L 518.5,152.0 L 518.0,152.5 L 517.5,153.0 L 517.5,154.0 L 517.0,154.5 L 516.5,155.0 L 516.5,156.0 L 516.5,157.0 L 516.0,157.5 L 515.5,158.0 L 515.5,159.0 L 515.0,159.5 L 514.5,160.0 L 514.0,160.5 L 513.5,161.0 L 513.0,161.5 L 512.5,162.0 L 512.0,162.5 L 511.5,163.0 L 511.0,163.5 L 510.5,164.0 L 510.0,164.5 L 509.0,164.5 L 508.5,165.0 L 508.0,165.5 L 507.0,165.5 L 506.5,166.0 L 506.0,166.5 L 505.5,167.0 L 505.0,167.5 L 504.5,168.0 L 504.5,169.0 L 504.5,170.0 L 504.5,171.0 L 504.5,172.0 L 504.0,172.5 L 503.5,173.0 L 503.0,173.5 L 502.0,173.5 L 501.5,174.0 L 501.0,174.5 L 500.0,174.5 L 499.5,175.0 L 499.0,175.5 L 498.5,176.0 L 498.0,176.5 L 497.5,177.0 L 497.5,178.0 L 497.5,179.0 L 497.5,180.0 L 497.5,181.0 L 497.5,182.0 L 497.5,183.0 L 497.5,184.0 L 497.5,185.0 L 497.0,185.5 L 496.5,186.0 L 496.5,187.0 L 496.5,188.0 L 496.0,188.5 L 495.5,189.0 L 495.5,190.0 L 495.5,191.0 L 495.5,192.0 L 496.0,192.5 L 496.5,193.0 L 497.0,193.5 L 498.0,193.5 L 498.5,193.0 Z" fill="rgb(248,182,56)" stroke="white" stroke-width="2" fill-rule="evenodd"/>
  <path d="M 579.5,124.0 L 580.0,123.5 L 580.5,123.0 L 581.0,122.5 L 581.5,122.0 L 582.0,121.5 L 582.5,121.0 L 583.0,120.5 L 583.5,120.0 L 584.0,119.5 L 584.5,119.0 L 584.5,118.0 L 584.5,117.0 L 584.5,116.0 L 585.0,115.5 L 585.5,115.0 L 585.5,114.0 L 585.5,113.0 L 585.0,112.5 L 584.5,112.0 L 584.0,111.5 L 583.5,111.0 L 583.0,110.5 L 582.0,110.5 L 581.0,110.5 L 580.0,110.5 L 579.0,110.5 L 578.5,111.0 L 578.0,111.5 L 577.0,111.5 L 576.5,112.0 L 576.0,112.5 L 575.5,113.0 L 575.0,113.5 L 574.5,114.0 L 574.5,115.0 L 574.0,115.5 L 573.5,116.0 L 573.0,116.5 L 572.5,117.0 L 572.5,118.0 L 572.0,118.5 L 571.5,119.0 L 571.0,119.5 L 570.5,120.0 L 570.5,121.0 L 570.5,122.0 L 571.0,122.5 L 571.5,123.0 L 572.0,123.5 L 572.5,124.0 L 573.0,124.5 L 574.0,124.5 L 575.0,124.5 L 576.0,124.5 L 577.0,124.5 L 578.0,124.5 L 579.0,124.5 L 579.5,124.0 Z" fill="rgb(248,182,56)" stroke="white" stroke-width="2" fill-rule="evenodd"/>
  <path d="M 531.5,132.0 L 532.0,131.5 L 532.5,131.0 L 533.0,130.5 L 533.5,130.0 L 534.0,129.5 L 534.5,129.0 L 534.5,128.0 L 534.5,127.0 L 535.0,126.5 L 535.5,126.0 L 535.5,125.0 L 536.0,124.5 L 536.5,124.0 L 537.0,123.5 L 537.5,123.0 L 538.0,122.5 L 538.5,122.0 L 539.0,121.5 L 539.5,121.0 L 540.0,120.5 L 540.5,120.0 L 540.5,119.0 L 540.5,118.0 L 540.5,117.0 L 540.0,116.5 L 539.5,116.0 L 539.0,115.5 L 538.0,115.5 L 537.0,115.5 L 536.5,116.0 L 536.0,116.5 L 535.5,117.0 L 535.0,117.5 L 534.0,117.5 L 533.5,118.0 L 533.0,118.5 L 532.5,119.0 L 532.0,119.5 L 531.5,120.0 L 531.5,121.0 L 531.5,122.0 L 531.5,123.0 L 531.5,124.0 L 531.0,124.5 L 530.5,125.0 L 530.0,125.5 L 529.0,125.5 L 528.5,126.0 L 528.0,126.5 L 527.5,127.0 L 527.0,127.5 L 526.5,128.0 L 526.5,129.0 L 527.0,129.5 L 527.5,130.0 L 528.0,130.5 L 528.5,131.0 L 529.0,131.5 L 529.5,132.0 L 530.0,132.5 L 531.0,132.5 L 531.5,132.0 Z" fill="rgb(248,182,56)" stroke="white" stroke-width="2" fill-rule="evenodd"/>
  <path d="M 514.5,140.0 L 515.0,139.5 L 515.5,139.0 L 516.0,138.5 L 516.5,138.0 L 517.0,137.5 L 517.5,137.0 L 517.5,136.0 L 518.0,135.5 L 518.5,135.0 L 518.5,134.0 L 519.0,133.5 L 519.5,133.0 L 520.0,132.5 L 520.5,132.0 L 521.0,131.5 L 521.5,131.0 L 522.0,130.5 L 522.5,130.0 L 523.0,129.5 L 523.5,129.0 L 523.5,128.0 L 523.5,127.0 L 523.5,126.0 L 523.0,125.5 L 522.5,125.0 L 522.0,124.5 L 521.5,124.0 L 521.0,123.5 L 520.0,123.5 L 519.5,124.0 L 519.0,124.5 L 518.0,124.5 L 517.5,125.0 L 517.0,125.5 L 516.5,126.0 L 516.0,126.5 L 515.5,127.0 L 515.5,128.0 L 515.5,129.0 L 515.0,129.5 L 514.5,130.0 L 514.0,130.5 L 513.5,131.0 L 513.0,131.5 L 512.5,132.0 L 512.5,133.0 L 512.5,134.0 L 512.5,135.0 L 512.5,136.0 L 512.5,137.0 L 512.5,138.0 L 512.5,139.0 L 513.0,139.5 L 513.5,140.0 L 514.0,140.5 L 514.5,140.0 Z" fill="rgb(248,182,56)" stroke="white" stroke-width="2" fill-rule="evenodd"/>
  <path d="M 594.5,113.0 L 595.0,112.5 L 595.5,112.0 L 595.5,111.0 L 596.0,110.5 L 596.5,110.0 L 597.0,109.5 L 597.5,109.0 L 597.5,108.0 L 597.5,107.0 L 597.5,106.0 L 597.0,105.5 L 596.5,105.0 L 596.0,104.5 L 595.5,104.0 L 595.0,103.5 L 594.0,103.5 L 593.0,103.5 L 592.0,103.5 L 591.0,103.5 L 590.0,103.5 L 589.5,104.0 L 589.0,104.5 L 588.5,105.0 L 588.0,105.5 L 587.5,106.0 L 587.0,106.5 L 586.5,107.0 L 586.5,108.0 L 586.5,109.0 L 586.5,110.0 L 587.0,110.5 L 587.5,111.0 L 588.0,111.5 L 588.5,112.0 L 589.0,112.5 L 590.0,112.5 L 591.0,112.5 L 591.5,113.0 L 592.0,113.5 L 593.0,113.5 L 594.0,113.5 L 594.5,113.0 Z" fill="rgb(248,182,56)" stroke="white" stroke-width="2" fill-rule="evenodd"/>
</svg>
