<svg xmlns="http://www.w3.org/2000/svg" viewBox="0 0 481 553">
  <path id="orange_walk" d="M 4.0 549.5 L 2.5 549.0 L 2.5 175.0 L 10.5 165.0 L 12.5 157.0 L 16.0 155.5 L 19.0 158.5 L 22.0 158.5 L 39.0 146.5 L 44.0 145.5 L 53.0 147.5 L 57.0 142.5 L 65.0 140.5 L 70.0 142.5 L 75.0 147.5 L 80.0 147.5 L 83.5 150.0 L 83.5 157.0 L 91.0 172.5 L 93.0 172.5 L 97.0 167.5 L 104.0 170.5 L 110.0 167.5 L 115.0 167.5 L 123.5 183.0 L 133.0 194.5 L 137.0 193.5 L 140.0 196.5 L 143.0 196.5 L 149.0 203.5 L 162.0 204.5 L 165.5 202.0 L 167.5 195.0 L 165.5 189.0 L 167.5 183.0 L 176.0 178.5 L 179.0 174.5 L 187.0 173.5 L 207.5 153.0 L 208.5 149.0 L 206.5 145.0 L 215.5 135.0 L 216.5 123.0 L 226.0 120.5 L 243.5 108.0 L 246.5 98.0 L 244.5 88.0 L 249.5 84.0 L 247.5 75.0 L 256.5 57.0 L 266.5 49.0 L 264.5 38.0 L 257.5 33.0 L 259.0 31.5 L 269.0 29.5 L 287.0 17.5 L 294.0 17.5 L 304.0 9.5 L 309.0 2.5 L 317.0 4.5 L 370.0 28.5 L 386.5 59.0 L 395.5 82.0 L 477.5 158.0 L 475.0 160.5 L 456.0 165.5 L 345.0 188.5 L 331.5 194.0 L 320.5 228.0 L 322.5 237.0 L 325.5 241.0 L 325.5 253.0 L 322.5 260.0 L 320.5 275.0 L 324.5 284.0 L 324.5 292.0 L 320.5 308.0 L 323.5 325.0 L 316.0 329.5 L 296.0 334.5 L 291.5 338.0 L 290.5 348.0 L 284.5 355.0 L 278.5 371.0 L 284.5 467.0 L 282.5 479.0 L 277.0 477.5 L 271.0 479.5 L 261.0 487.5 L 244.0 486.5 L 231.0 501.5 L 217.0 506.5 L 192.0 504.5 L 185.0 507.5 L 178.0 503.5 L 142.0 503.5 L 138.5 506.0 L 132.0 518.5 L 119.0 522.5 L 101.0 522.5 L 85.0 526.5 L 73.0 525.5 L 60.0 531.5 L 52.0 524.5 L 41.0 522.5 L 28.0 530.5 L 24.0 535.5 L 10.0 542.5 L 4.0 549.5 Z" fill="#E55035" stroke="#ffffff" stroke-width="2" vector-effect="non-scaling-stroke" fill-rule="evenodd"/>
</svg>