<svg xmlns="http://www.w3.org/2000/svg" viewBox="0 0 420 556">
  <path d="M 376 24 L 360 26 L 354 17 L 346 18 L 346 23 L 339 26 L 336 36 L 317 55 L 311 66 L 312 75 L 309 89 L 303 88 L 304 78 L 302 77 L 302 93 L 297 94 L 299 110 L 292 125 L 292 132 L 283 138 L 275 156 L 271 160 L 268 160 L 265 165 L 257 166 L 255 178 L 261 174 L 268 175 L 267 162 L 272 161 L 274 157 L 280 158 L 280 165 L 278 168 L 274 168 L 275 175 L 272 176 L 278 179 L 278 190 L 271 197 L 257 197 L 255 191 L 240 204 L 236 214 L 231 219 L 233 229 L 237 221 L 241 221 L 244 225 L 245 237 L 241 246 L 242 244 L 247 245 L 248 254 L 239 255 L 233 265 L 227 269 L 224 277 L 212 285 L 210 293 L 206 295 L 203 302 L 196 309 L 202 311 L 205 316 L 205 322 L 201 326 L 198 335 L 191 340 L 191 344 L 184 345 L 181 343 L 176 353 L 183 347 L 188 348 L 189 360 L 194 363 L 189 380 L 197 380 L 209 368 L 216 366 L 217 363 L 223 364 L 225 361 L 229 361 L 232 364 L 232 373 L 226 374 L 224 377 L 213 375 L 213 379 L 210 380 L 210 386 L 203 386 L 201 391 L 202 404 L 194 409 L 196 413 L 200 414 L 200 418 L 195 421 L 191 430 L 186 430 L 183 448 L 177 449 L 173 447 L 168 455 L 156 466 L 147 467 L 144 473 L 137 476 L 132 475 L 132 469 L 135 466 L 130 465 L 123 476 L 129 475 L 139 478 L 139 484 L 135 487 L 136 500 L 134 505 L 121 505 L 117 501 L 118 494 L 114 499 L 99 499 L 89 507 L 78 508 L 76 500 L 64 502 L 63 497 L 63 511 L 66 511 L 68 514 L 88 511 L 93 516 L 101 516 L 103 513 L 115 513 L 116 511 L 183 515 L 198 513 L 143 513 L 142 508 L 150 503 L 166 482 L 167 470 L 189 448 L 195 431 L 219 404 L 225 389 L 237 380 L 240 370 L 255 343 L 263 323 L 269 315 L 275 299 L 299 261 L 302 252 L 302 238 L 312 224 L 313 217 L 317 211 L 318 199 L 325 185 L 352 159 L 361 145 L 366 145 L 377 136 L 406 125 L 406 115 L 399 107 L 395 92 L 395 78 L 386 60 L 387 50 Z" fill="#FF7F50" stroke="#e06a3e" stroke-width="1.5"/>
  <path d="M 200 153 L 199 161 L 190 167 L 195 169 L 195 173 L 188 177 L 188 184 L 204 187 L 206 179 L 212 179 L 215 175 L 218 175 L 218 164 L 223 161 L 221 159 L 213 163 L 206 162 Z" fill="#FF7F50" stroke="#e06a3e" stroke-width="1.5"/>
  <path d="M 262 128 L 256 128 L 254 133 L 246 133 L 244 129 L 238 130 L 237 137 L 234 139 L 238 140 L 239 151 L 234 158 L 244 153 L 247 146 L 256 144 L 262 137 Z" fill="#FF7F50" stroke="#e06a3e" stroke-width="1.5"/>
  <path d="M 265 101 L 256 106 L 253 116 L 243 119 L 251 124 L 262 122 Z" fill="#FF7F50" stroke="#e06a3e" stroke-width="1.5"/>
  <path d="M 155 433 L 150 434 L 147 440 L 142 443 L 144 453 L 147 455 L 152 452 L 157 442 Z" fill="#FF7F50" stroke="#e06a3e" stroke-width="1.5"/>
  <path d="M 208 217 L 204 220 L 204 233 L 207 237 L 218 239 L 221 235 L 220 231 L 217 231 L 209 224 Z" fill="#FF7F50" stroke="#e06a3e" stroke-width="1.5"/>
</svg>