<svg xmlns="http://www.w3.org/2000/svg" viewBox="0 0 1024 1536">
  <path d="M 492.0,1184.5 L 487.0,1183.5 L 482.0,1182.5 L 477.0,1183.5 L 472.0,1184.5 L 467.0,1183.5 L 462.0,1182.5 L 456.0,1182.5 L 452.0,1182.5 L 447.0,1181.5 L 441.0,1181.5 L 436.0,1182.5 L 431.5,1181.0 L 426.0,1180.5 L 421.0,1179.5 L 415.0,1179.5 L 410.0,1178.5 L 409.0,1174.5 L 411.5,1171.0 L 409.5,1167.0 L 410.5,1162.0 L 408.5,1158.0 L 406.5,1154.0 L 405.5,1149.0 L 404.0,1144.5 L 402.5,1140.0 L 401.5,1135.0 L 399.5,1131.0 L 398.0,1126.5 L 396.0,1122.5 L 392.0,1120.5 L 389.5,1119.0 L 388.5,1114.0 L 391.0,1110.5 L 392.0,1105.5 L 391.5,1101.0 L 388.5,1098.0 L 388.5,1094.0 L 386.0,1090.5 L 380.0,1090.5 L 377.5,1087.0 L 374.5,1084.0 L 370.0,1084.5 L 367.0,1081.5 L 363.5,1079.0 L 360.0,1076.5 L 356.0,1074.5 L 350.5,1075.0 L 345.5,1076.0 L 341.0,1077.5 L 335.0,1077.5 L 330.0,1078.5 L 325.0,1079.5 L 319.0,1079.5 L 315.0,1081.5 L 309.0,1081.5 L 304.5,1080.0 L 300.0,1080.5 L 299.5,1079.0 L 296.0,1076.5 L 291.0,1077.5 L 286.0,1078.5 L 282.5,1078.0 L 282.5,1072.0 L 283.5,1067.0 L 284.5,1062.0 L 286.5,1058.0 L 288.5,1054.0 L 291.0,1050.5 L 294.0,1047.5 L 295.5,1043.0 L 296.5,1038.0 L 298.5,1034.0 L 302.0,1031.5 L 305.0,1028.5 L 306.5,1024.0 L 309.0,1020.5 L 311.0,1016.5 L 314.0,1013.5 L 318.5,1012.0 L 322.0,1009.5 L 326.0,1009.5 L 331.5,1009.0 L 336.0,1007.5 L 341.0,1006.5 L 345.5,1005.0 L 346.0,1000.5 L 343.0,997.5 L 337.0,997.5 L 334.0,994.5 L 333.5,989.0 L 338.0,987.5 L 344.0,987.5 L 347.0,984.5 L 349.0,980.5 L 349.5,975.0 L 349.5,969.0 L 347.5,965.0 L 348.5,960.0 L 350.5,956.0 L 349.0,951.5 L 349.5,947.0 L 353.0,944.5 L 356.5,942.0 L 356.5,938.0 L 359.0,936.5 L 362.5,934.0 L 367.5,933.0 L 368.5,928.0 L 369.5,923.0 L 373.0,920.5 L 378.0,919.5 L 381.0,916.5 L 383.5,913.0 L 386.0,909.5 L 387.5,905.0 L 387.5,899.0 L 389.5,895.0 L 392.5,892.0 L 394.5,888.0 L 396.5,884.0 L 399.5,881.0 L 404.0,879.5 L 408.0,877.5 L 408.5,872.0 L 408.0,866.5 L 405.0,863.5 L 400.5,862.0 L 396.0,862.5 L 393.0,859.5 L 391.0,855.5 L 389.0,851.5 L 386.5,848.0 L 384.5,844.0 L 381.5,841.0 L 384.0,837.5 L 388.0,835.5 L 392.0,833.5 L 396.0,831.5 L 400.0,833.5 L 405.0,834.5 L 410.0,835.5 L 416.0,835.5 L 422.0,835.5 L 428.0,835.5 L 433.0,836.5 L 439.0,836.5 L 445.0,836.5 L 451.0,836.5 L 457.0,836.5 L 463.0,836.5 L 469.0,836.5 L 475.0,836.5 L 481.0,836.5 L 487.0,836.5 L 493.0,836.5 L 499.0,836.5 L 505.0,836.5 L 510.0,837.5 L 516.0,837.5 L 522.0,837.5 L 528.0,837.5 L 533.0,836.5 L 536.5,834.0 L 540.0,831.5 L 544.0,829.5 L 548.0,827.5 L 553.0,826.5 L 555.5,828.0 L 558.0,831.5 L 560.5,835.0 L 560.5,841.0 L 561.5,846.0 L 563.0,850.5 L 565.5,854.0 L 568.0,857.5 L 571.5,860.0 L 576.5,860.0 L 581.0,858.5 L 583.5,862.0 L 583.5,868.0 L 584.0,873.5 L 584.5,879.0 L 586.5,883.0 L 587.0,887.5 L 587.5,892.0 L 589.5,896.0 L 590.5,901.0 L 592.5,905.0 L 594.5,909.0 L 594.5,913.0 L 596.5,917.0 L 599.0,914.5 L 600.5,919.0 L 600.0,924.5 L 598.5,929.0 L 596.5,933.0 L 593.5,936.0 L 589.0,937.5 L 584.0,938.5 L 580.0,940.5 L 575.5,942.0 L 571.0,943.5 L 567.5,946.0 L 564.5,949.0 L 562.0,952.5 L 558.0,954.5 L 555.5,958.0 L 556.0,963.5 L 557.5,968.0 L 553.0,969.5 L 549.5,972.0 L 550.0,977.5 L 553.0,980.5 L 556.5,978.0 L 559.0,980.5 L 561.5,984.0 L 563.0,988.5 L 564.5,993.0 L 567.0,996.5 L 568.5,1001.0 L 570.0,1005.5 L 573.0,1008.5 L 575.5,1012.0 L 574.0,1014.5 L 570.5,1014.0 L 566.5,1013.0 L 564.5,1017.0 L 562.5,1021.0 L 560.5,1022.0 L 559.5,1017.0 L 556.0,1018.5 L 555.5,1022.0 L 552.0,1024.5 L 548.0,1024.5 L 544.5,1027.0 L 541.5,1030.0 L 538.5,1033.0 L 538.5,1039.0 L 540.5,1043.0 L 541.5,1046.0 L 543.0,1050.5 L 546.5,1053.0 L 548.5,1057.0 L 550.5,1061.0 L 549.5,1066.0 L 547.5,1070.0 L 546.5,1075.0 L 546.5,1079.0 L 547.0,1083.5 L 545.5,1088.0 L 546.5,1093.0 L 541.5,1093.0 L 537.5,1092.0 L 535.5,1096.0 L 538.0,1098.5 L 535.0,1101.5 L 531.0,1103.5 L 527.5,1106.0 L 525.0,1109.5 L 521.5,1109.0 L 517.5,1110.0 L 515.5,1114.0 L 515.5,1118.0 L 512.5,1121.0 L 511.5,1126.0 L 511.0,1131.5 L 509.5,1136.0 L 509.5,1140.0 L 511.5,1144.0 L 514.5,1147.0 L 514.5,1151.0 L 513.0,1153.5 L 509.0,1151.5 L 505.0,1153.5 L 501.5,1156.0 L 502.5,1161.0 L 503.0,1163.5 L 498.5,1162.0 L 494.5,1163.0 L 494.0,1167.5 L 493.0,1171.5 L 491.5,1176.0 L 493.5,1180.0 L 493.0,1183.5 L 492.0,1184.5 Z" fill="rgb(146,33,140)" stroke="white" stroke-width="2" fill-rule="evenodd"/>
</svg>
