<svg xmlns="http://www.w3.org/2000/svg" viewBox="0 0 461 460">
  <path id="toledo" d="M 152.0 456.5 L 145.0 456.5 L 142.0 454.5 L 127.0 456.5 L 122.0 453.5 L 111.0 456.5 L 108.0 455.5 L 107.5 453.0 L 103.0 449.5 L 95.0 449.5 L 91.0 451.5 L 88.0 446.5 L 83.0 451.5 L 79.0 449.5 L 75.0 452.5 L 69.0 449.5 L 61.0 448.5 L 50.0 454.5 L 35.0 454.5 L 24.0 448.5 L 21.0 448.5 L 16.0 452.5 L 12.0 451.5 L 4.0 454.5 L 2.5 453.0 L 25.5 199.0 L 26.5 172.0 L 29.5 154.0 L 37.5 137.0 L 45.0 131.5 L 61.0 126.5 L 71.0 126.5 L 77.0 124.5 L 85.0 125.5 L 94.0 116.5 L 102.0 111.5 L 108.0 102.5 L 110.0 102.5 L 116.0 110.5 L 122.0 113.5 L 127.0 112.5 L 139.0 104.5 L 148.0 104.5 L 150.5 101.0 L 149.5 95.0 L 159.0 85.5 L 166.0 83.5 L 173.0 84.5 L 191.0 69.5 L 203.0 68.5 L 210.0 60.5 L 216.5 57.0 L 219.0 52.5 L 230.5 47.0 L 230.5 42.0 L 225.5 34.0 L 226.5 25.0 L 233.5 20.0 L 237.0 11.5 L 260.0 5.5 L 266.0 10.5 L 283.0 10.5 L 297.0 6.5 L 314.0 5.5 L 321.0 2.5 L 324.0 3.5 L 337.0 14.5 L 342.0 13.5 L 343.5 17.0 L 349.0 19.5 L 356.5 29.0 L 356.5 36.0 L 353.5 43.0 L 357.0 50.5 L 361.5 50.0 L 369.5 69.0 L 371.5 82.0 L 375.5 89.0 L 373.5 105.0 L 382.0 109.5 L 393.0 108.5 L 398.0 111.5 L 408.0 110.5 L 411.0 112.5 L 427.0 111.5 L 433.0 113.5 L 457.0 113.5 L 454.5 125.0 L 448.5 136.0 L 449.5 145.0 L 448.0 146.5 L 437.0 146.5 L 433.0 157.5 L 429.0 152.5 L 423.5 155.0 L 423.5 164.0 L 415.5 175.0 L 413.5 190.0 L 409.5 198.0 L 410.5 204.0 L 401.0 207.5 L 392.5 216.0 L 388.0 223.5 L 381.0 225.5 L 377.5 229.0 L 375.5 236.0 L 376.0 242.5 L 373.0 243.5 L 368.0 237.5 L 364.0 237.5 L 361.5 242.0 L 362.5 246.0 L 357.0 249.5 L 353.5 248.0 L 355.5 241.0 L 359.5 237.0 L 359.5 233.0 L 355.5 230.0 L 357.5 220.0 L 348.5 216.0 L 346.0 207.5 L 342.0 208.5 L 338.5 212.0 L 341.5 227.0 L 331.5 231.0 L 333.5 239.0 L 324.0 234.5 L 317.0 236.5 L 313.5 241.0 L 314.5 253.0 L 313.0 254.5 L 309.0 255.5 L 305.0 253.5 L 298.0 258.5 L 290.0 258.5 L 285.0 263.5 L 274.0 261.5 L 270.5 264.0 L 268.5 270.0 L 263.0 272.5 L 260.5 276.0 L 263.5 296.0 L 266.5 298.0 L 266.5 300.0 L 257.5 312.0 L 258.5 321.0 L 235.0 330.5 L 230.5 335.0 L 230.5 343.0 L 226.5 346.0 L 223.0 353.5 L 217.0 352.5 L 208.0 360.5 L 199.5 365.0 L 199.5 378.0 L 197.0 381.5 L 177.0 392.5 L 169.0 394.5 L 154.5 407.0 L 151.5 420.0 L 152.5 428.0 L 156.5 441.0 L 162.5 452.0 L 161.0 455.5 L 152.0 456.5 Z" fill="#E9682A" stroke="#ffffff" stroke-width="2" vector-effect="non-scaling-stroke" fill-rule="evenodd"/>
</svg>